<svg width="1020" height="269" viewBox="0 0 1020 269" fill="none" xmlns="http://www.w3.org/2000/svg">
<rect width="1020" height="269" fill="white"/>
<rect width="16" height="144" rx="8" transform="matrix(0 1 1 0 54 125)" fill="#F58B44"/>
<rect width="18" height="90" rx="9" transform="matrix(0 1 1 0 108 156)" fill="#F58B44"/>
<rect width="17" height="41" rx="8.5" transform="matrix(0 1 1 0 157 188)" fill="#F58B44"/>
<rect x="110" y="110" width="18" height="88" rx="9" transform="rotate(-90 110 110)" fill="#F58B44"/>
<rect x="157" y="78" width="17" height="41" rx="8.5" transform="rotate(-90 157 78)" fill="#F58B44"/>
<rect x="943" y="125" width="16" height="144" rx="8" transform="rotate(90 943 125)" fill="#F58B44"/>
<rect x="889" y="156" width="18" height="90" rx="9" transform="rotate(90 889 156)" fill="#F58B44"/>
<rect x="840" y="188" width="17" height="41" rx="8.5" transform="rotate(90 840 188)" fill="#F58B44"/>
<rect width="18" height="88" rx="9" transform="matrix(0 -1 -1 0 887 110)" fill="#F58B44"/>
<rect width="17" height="41" rx="8.5" transform="matrix(0 -1 -1 0 840 78)" fill="#F58B44"/>
<path d="M263.852 175C261.602 175 259.727 174.5 258.227 173.5C256.81 172.417 255.643 170.833 254.727 168.75L222.102 95.5C221.185 93.4167 220.935 91.5833 221.352 90C221.768 88.4167 222.643 87.1667 223.977 86.25C225.31 85.3333 226.893 84.875 228.727 84.875C231.143 84.875 232.935 85.4167 234.102 86.5C235.352 87.5 236.393 89.0417 237.227 91.125L266.852 159.75H261.477L290.977 91C291.893 89 292.977 87.5 294.227 86.5C295.477 85.4167 297.227 84.875 299.477 84.875C301.31 84.875 302.81 85.3333 303.977 86.25C305.227 87.1667 306.018 88.4167 306.352 90C306.685 91.5833 306.393 93.4167 305.477 95.5L272.852 168.75C271.935 170.833 270.768 172.417 269.352 173.5C268.018 174.5 266.185 175 263.852 175ZM326.463 174C323.713 174 321.588 173.292 320.088 171.875C318.671 170.375 317.963 168.25 317.963 165.5V94.375C317.963 91.625 318.671 89.5417 320.088 88.125C321.588 86.625 323.713 85.875 326.463 85.875H371.088C373.171 85.875 374.755 86.4167 375.838 87.5C377.005 88.5833 377.588 90.125 377.588 92.125C377.588 94.2083 377.005 95.8333 375.838 97C374.755 98.0833 373.171 98.625 371.088 98.625H333.338V122.875H368.338C370.505 122.875 372.13 123.417 373.213 124.5C374.296 125.583 374.838 127.167 374.838 129.25C374.838 131.333 374.296 132.917 373.213 134C372.13 135.083 370.505 135.625 368.338 135.625H333.338V161.25H371.088C373.171 161.25 374.755 161.792 375.838 162.875C377.005 163.958 377.588 165.542 377.588 167.625C377.588 169.708 377.005 171.292 375.838 172.375C374.755 173.458 373.171 174 371.088 174H326.463ZM400.548 175C397.965 175 395.965 174.292 394.548 172.875C393.215 171.375 392.548 169.333 392.548 166.75V94C392.548 91.3333 393.256 89.3333 394.673 88C396.09 86.5833 398.09 85.875 400.673 85.875H430.798C440.465 85.875 447.923 88.2083 453.173 92.875C458.423 97.4583 461.048 103.917 461.048 112.25C461.048 117.667 459.84 122.333 457.423 126.25C455.09 130.167 451.673 133.167 447.173 135.25C442.673 137.333 437.215 138.375 430.798 138.375L431.923 136.5H436.048C439.465 136.5 442.423 137.333 444.923 139C447.506 140.667 449.756 143.292 451.673 146.875L461.048 164.25C462.048 166 462.506 167.708 462.423 169.375C462.34 171.042 461.715 172.417 460.548 173.5C459.381 174.5 457.673 175 455.423 175C453.173 175 451.34 174.542 449.923 173.625C448.506 172.625 447.256 171.125 446.173 169.125L433.548 145.875C432.048 143.042 430.256 141.167 428.173 140.25C426.173 139.25 423.59 138.75 420.423 138.75H408.548V166.75C408.548 169.333 407.881 171.375 406.548 172.875C405.215 174.292 403.215 175 400.548 175ZM408.548 126.875H428.048C433.798 126.875 438.131 125.708 441.048 123.375C444.048 120.958 445.548 117.375 445.548 112.625C445.548 107.958 444.048 104.458 441.048 102.125C438.131 99.7083 433.798 98.5 428.048 98.5H408.548V126.875ZM486.741 174C483.991 174 481.866 173.292 480.366 171.875C478.95 170.375 478.241 168.25 478.241 165.5V94.375C478.241 91.625 478.95 89.5417 480.366 88.125C481.866 86.625 483.991 85.875 486.741 85.875H516.741C522.908 85.875 528.158 86.7917 532.491 88.625C536.825 90.4583 540.116 93.0833 542.366 96.5C544.7 99.9167 545.866 104 545.866 108.75C545.866 114.083 544.325 118.583 541.241 122.25C538.158 125.917 533.95 128.375 528.616 129.625V127.75C534.783 128.667 539.575 131 542.991 134.75C546.408 138.5 548.116 143.375 548.116 149.375C548.116 157.208 545.45 163.292 540.116 167.625C534.866 171.875 527.533 174 518.116 174H486.741ZM493.616 161.875H516.116C521.783 161.875 525.95 160.792 528.616 158.625C531.283 156.375 532.616 153.042 532.616 148.625C532.616 144.125 531.283 140.792 528.616 138.625C525.95 136.458 521.783 135.375 516.116 135.375H493.616V161.875ZM493.616 123.25H513.991C519.491 123.25 523.575 122.208 526.241 120.125C528.991 117.958 530.366 114.792 530.366 110.625C530.366 106.458 528.991 103.333 526.241 101.25C523.575 99.0833 519.491 98 513.991 98H493.616V123.25ZM564.565 175C562.565 175 560.94 174.542 559.69 173.625C558.524 172.708 557.815 171.5 557.565 170C557.315 168.417 557.607 166.667 558.44 164.75L591.44 91.625C592.524 89.2083 593.815 87.5 595.315 86.5C596.899 85.4167 598.69 84.875 600.69 84.875C602.607 84.875 604.315 85.4167 605.815 86.5C607.399 87.5 608.732 89.2083 609.815 91.625L642.94 164.75C643.857 166.667 644.19 168.417 643.94 170C643.69 171.583 642.982 172.833 641.815 173.75C640.649 174.583 639.107 175 637.19 175C634.857 175 633.024 174.458 631.69 173.375C630.44 172.208 629.315 170.458 628.315 168.125L620.19 149.25L626.94 153.625H574.19L580.94 149.25L572.94 168.125C571.857 170.542 570.732 172.292 569.565 173.375C568.399 174.458 566.732 175 564.565 175ZM600.44 103.25L582.94 144.875L579.69 140.875H621.44L618.315 144.875L600.69 103.25H600.44ZM664.833 174C662.25 174 660.25 173.292 658.833 171.875C657.416 170.375 656.708 168.333 656.708 165.75V93.625C656.708 90.9583 657.375 88.9583 658.708 87.625C660.125 86.2083 662.125 85.5 664.708 85.5C667.291 85.5 669.25 86.2083 670.583 87.625C672 88.9583 672.708 90.9583 672.708 93.625V160.375H708.958C711.208 160.375 712.916 160.958 714.083 162.125C715.333 163.292 715.958 164.958 715.958 167.125C715.958 169.292 715.333 171 714.083 172.25C712.916 173.417 711.208 174 708.958 174H664.833ZM741.128 175C738.545 175 736.545 174.292 735.128 172.875C733.795 171.375 733.128 169.292 733.128 166.625V128.625L736.503 138.25L706.378 95.875C705.295 94.375 704.795 92.7917 704.878 91.125C705.045 89.375 705.753 87.9167 707.003 86.75C708.253 85.5 710.003 84.875 712.253 84.875C713.92 84.875 715.42 85.2917 716.753 86.125C718.17 86.9583 719.503 88.25 720.753 90L743.128 121.75H739.628L762.128 90C763.461 88.1667 764.753 86.875 766.003 86.125C767.253 85.2917 768.795 84.875 770.628 84.875C772.795 84.875 774.461 85.4583 775.628 86.625C776.878 87.7083 777.503 89.0833 777.503 90.75C777.586 92.4167 777.003 94.1667 775.753 96L745.878 138.25L749.128 128.625V166.625C749.128 172.208 746.461 175 741.128 175Z" fill="#F58B44"/>
</svg>
