<svg width="615" height="302" viewBox="0 0 615 302" fill="none" xmlns="http://www.w3.org/2000/svg">
<rect width="615" height="302" fill="white"/>
<path fill-rule="evenodd" clip-rule="evenodd" d="M296.5 30C305.37 30 311.011 38.0283 317.075 46.6568C319.674 50.356 322.351 54.1655 325.393 57.5C326.369 58.5698 327.282 59.5889 328.153 60.56L328.154 60.5617L328.157 60.5653C336.812 70.2242 341.204 75.125 360.623 77.7857C373.091 79.4941 385.559 74.2267 398.027 68.9593C406.933 65.1969 415.839 61.4345 424.745 60.2143C446.119 57.2857 467.494 68.9998 488.868 83.6429C510.242 98.2859 531.616 115.857 542.303 124.643L552.99 133.429V133.538C554.516 134.854 555.769 136.614 556.642 138.67C557.556 140.825 558.023 143.235 557.999 145.677C557.975 148.119 557.462 150.514 556.506 152.64C555.64 154.566 554.437 156.214 552.99 157.462V157.571L542.303 166.357C531.616 175.143 510.242 192.714 488.868 207.357C467.494 222 446.119 233.714 424.745 230.786C415.839 229.565 406.933 225.803 398.027 222.041C385.559 216.773 373.091 211.506 360.623 213.214C341.204 215.875 336.812 220.776 328.157 230.435L328.154 230.438C327.283 231.41 326.37 232.43 325.393 233.5C322.351 236.835 319.674 240.644 317.075 244.343C311.011 252.972 305.37 261 296.5 261C287.63 261 281.989 252.972 275.925 244.343C273.326 240.644 270.649 236.835 267.607 233.5C266.629 232.428 265.714 231.407 264.843 230.435C256.188 220.776 251.796 215.875 232.377 213.214C219.909 211.506 207.441 216.773 194.972 222.041C186.067 225.803 177.161 229.565 168.255 230.786C146.881 233.714 125.506 222 104.132 207.357C82.758 192.714 61.3838 175.143 50.6967 166.357L40.0096 157.571V157.462C38.563 156.214 37.3597 154.566 36.4938 152.64C35.5381 150.514 35.0246 148.119 35.0009 145.677C34.9772 143.235 35.4441 140.825 36.3582 138.67C37.2307 136.614 38.4837 134.854 40.0096 133.538V133.429L50.6967 124.643C61.3838 115.857 82.758 98.2859 104.132 83.6429C125.506 68.9998 146.881 57.2857 168.255 60.2143C177.161 61.4345 186.067 65.1969 194.972 68.9593C207.441 74.2267 219.909 79.4941 232.377 77.7857C251.796 75.125 256.188 70.2242 264.843 60.5653L264.844 60.564C265.715 59.5917 266.629 58.5712 267.607 57.5C270.649 54.1655 273.326 50.3561 275.925 46.657L275.925 46.6568C281.989 38.0283 287.63 30 296.5 30Z" fill="#52B6DE" fill-opacity="0.33"/>
<path fill-rule="evenodd" clip-rule="evenodd" d="M297.5 94.0396C286.434 94.5366 279.823 103.578 273.154 112.698L273.154 112.698L273.154 112.698C270.589 116.206 268.016 119.725 265.177 122.775C254.741 133.986 244.304 136.789 233.868 131.183C229.954 129.081 226.04 125.797 222.127 122.512C215.604 117.038 209.081 111.564 202.558 111.564C197.814 111.564 193.071 114.459 188.327 117.355C182.634 120.829 176.942 124.304 171.249 122.775C164.658 121.005 158.066 112.526 151.475 104.048C147.63 99.1025 143.785 94.1568 139.94 90.5426C129.503 80.7328 119.067 80.7328 108.63 89.1412C102.938 93.7276 97.2451 100.816 91.5525 107.904L91.5525 107.904C86.8086 113.81 82.0648 119.717 77.3209 124.176C66.8845 133.986 56.448 136.789 51.2298 138.19L46.0115 139.592V139.627C44.6489 140.027 43.4306 140.605 42.4486 141.331C40.8335 142.525 39.9651 144.037 40.0011 145.593C40.0371 147.149 40.9751 148.645 42.6447 149.81C43.5924 150.471 44.74 151 46.0115 151.373V151.408L51.2298 152.81C56.448 154.211 66.8845 157.014 77.3209 166.824C82.0648 171.283 86.8086 177.189 91.5524 183.096C97.2451 190.184 102.938 197.272 108.63 201.859C119.067 210.267 129.503 210.267 139.94 200.457C143.785 196.843 147.63 191.898 151.475 186.952L151.475 186.952C158.066 178.474 164.658 169.995 171.249 168.225C176.942 166.696 182.634 170.171 188.327 173.645C193.071 176.541 197.814 179.436 202.558 179.436C209.081 179.436 215.604 173.962 222.127 168.488C226.04 165.203 229.954 161.919 233.868 159.817C244.304 154.211 254.741 157.014 265.177 168.225C268.016 171.275 270.589 174.794 273.154 178.302L273.154 178.302L273.154 178.302C279.823 187.422 286.434 196.463 297.5 196.96V196.982C297.666 196.982 297.83 196.98 297.994 196.977C298.158 196.98 298.322 196.982 298.488 196.982V196.96C309.555 196.463 316.166 187.422 322.834 178.302C325.399 174.794 327.972 171.275 330.811 168.225C341.248 157.014 351.684 154.211 362.121 159.817C366.034 161.919 369.948 165.203 373.862 168.488C380.384 173.962 386.907 179.436 393.43 179.436C398.174 179.436 402.918 176.541 407.661 173.645C413.354 170.171 419.047 166.696 424.739 168.225C431.331 169.995 437.922 178.474 444.514 186.952C448.359 191.898 452.204 196.843 456.049 200.457C466.485 210.267 476.922 210.267 487.358 201.859C493.051 197.272 498.743 190.184 504.436 183.096C509.18 177.189 513.924 171.283 518.667 166.824C529.104 157.014 539.54 154.211 544.759 152.81L548.048 151.926C550.481 151.698 552.71 150.949 554.344 149.81C556.013 148.645 556.951 147.149 556.987 145.593C557.023 144.037 556.155 142.525 554.54 141.331C552.925 140.137 550.67 139.341 548.186 139.087L548.18 139.109L544.759 138.19C539.54 136.789 529.104 133.986 518.667 124.176C513.924 119.717 509.18 113.81 504.436 107.904C498.743 100.816 493.051 93.7276 487.358 89.1412C476.922 80.7328 466.485 80.7328 456.049 90.5426C452.204 94.1568 448.359 99.1025 444.514 104.048C437.922 112.526 431.331 121.005 424.739 122.775C419.047 124.304 413.354 120.829 407.661 117.355C402.918 114.459 398.174 111.564 393.43 111.564C386.907 111.564 380.384 117.038 373.862 122.512C369.948 125.797 366.034 129.081 362.121 131.183C351.684 136.789 341.248 133.986 330.811 122.775C327.972 119.725 325.399 116.206 322.834 112.698C316.166 103.578 309.555 94.5366 298.488 94.0396V94.0181C298.322 94.0179 298.158 94.0196 297.994 94.0232C297.83 94.0196 297.666 94.0179 297.5 94.0181V94.0396Z" fill="#52B6DE" fill-opacity="0.66"/>
<path fill-rule="evenodd" clip-rule="evenodd" d="M298 55C296.343 55 295 56.3431 295 58V233C295 234.657 296.343 236 298 236C299.657 236 301 234.657 301 233V58C301 56.3431 299.657 55 298 55ZM320 78C318.343 78 317 79.3431 317 81V209C317 210.657 318.343 212 320 212C321.657 212 323 210.657 323 209V81C323 79.3431 321.657 78 320 78ZM405 87C405 85.3431 406.343 84 408 84C409.657 84 411 85.3431 411 87V203C411 204.657 409.657 206 408 206C406.343 206 405 204.657 405 203V87ZM394 93C394 91.3431 395.343 90 397 90C398.657 90 400 91.3431 400 93V198C400 199.657 398.657 201 397 201C395.343 201 394 199.657 394 198V93ZM386 104C384.343 104 383 105.343 383 107V184C383 185.657 384.343 187 386 187C387.657 187 389 185.657 389 184V107C389 105.343 387.657 104 386 104ZM339 96C339 94.3431 340.343 93 342 93C343.657 93 345 94.3431 345 96V194C345 195.657 343.657 197 342 197C340.343 197 339 195.657 339 194V96ZM328 102C328 100.343 329.343 99 331 99C332.657 99 334 100.343 334 102V188C334 189.657 332.657 191 331 191C329.343 191 328 189.657 328 188V102ZM306 86C306 84.3431 307.343 83 309 83C310.657 83 312 84.3431 312 86V205C312 206.657 310.657 208 309 208C307.343 208 306 206.657 306 205V86ZM375 114C373.343 114 372 115.343 372 117V174C372 175.657 373.343 177 375 177C376.657 177 378 175.657 378 174V117C378 115.343 376.657 114 375 114ZM350 119C350 117.343 351.343 116 353 116C354.657 116 356 117.343 356 119V171C356 172.657 354.657 174 353 174C351.343 174 350 172.657 350 171V119ZM364 125C362.343 125 361 126.343 361 128V163C361 164.657 362.343 166 364 166C365.657 166 367 164.657 367 163V128C367 126.343 365.657 125 364 125ZM416 100C416 98.3431 417.343 97 419 97C420.657 97 422 98.3431 422 100V190C422 191.657 420.657 193 419 193C417.343 193 416 191.657 416 190V100ZM430 106C428.343 106 427 107.343 427 109V181C427 182.657 428.343 184 430 184C431.657 184 433 182.657 433 181V109C433 107.343 431.657 106 430 106ZM449 112C449 110.343 450.343 109 452 109C453.657 109 455 110.343 455 112V179C455 180.657 453.657 182 452 182C450.343 182 449 180.657 449 179V112ZM474 114C472.343 114 471 115.343 471 117V173C471 174.657 472.343 176 474 176C475.657 176 477 174.657 477 173V117C477 115.343 475.657 114 474 114ZM482 108C482 106.343 483.343 105 485 105C486.657 105 488 106.343 488 108V182C488 183.657 486.657 185 485 185C483.343 185 482 183.657 482 182V108ZM496 113C494.343 113 493 114.343 493 116V175C493 176.657 494.343 178 496 178C497.657 178 499 176.657 499 175V116C499 114.343 497.657 113 496 113ZM526 117C526 115.343 527.343 114 529 114C530.657 114 532 115.343 532 117V173C532 174.657 530.657 176 529 176C527.343 176 526 174.657 526 173V117ZM540 124C538.343 124 537 125.343 537 127V163C537 164.657 538.343 166 540 166C541.657 166 543 164.657 543 163V127C543 125.343 541.657 124 540 124ZM548 135C548 133.343 549.343 132 551 132C552.657 132 554 133.343 554 135V156C554 157.657 552.657 159 551 159C549.343 159 548 157.657 548 156V135ZM507 85C505.343 85 504 86.3431 504 88V203C504 204.657 505.343 206 507 206C508.657 206 510 204.657 510 203V88C510 86.3431 508.657 85 507 85ZM515 96C515 94.3431 516.343 93 518 93C519.657 93 521 94.3431 521 96V194C521 195.657 519.657 197 518 197C516.343 197 515 195.657 515 194V96ZM463 120C461.343 120 460 121.343 460 123V167C460 168.657 461.343 170 463 170C464.657 170 466 168.657 466 167V123C466 121.343 464.657 120 463 120ZM438 105C438 103.343 439.343 102 441 102C442.657 102 444 103.343 444 105V185C444 186.657 442.657 188 441 188C439.343 188 438 186.657 438 185V105ZM188 84C189.657 84 191 85.3431 191 87V203C191 204.657 189.657 206 188 206C186.343 206 185 204.657 185 203V87C185 85.3431 186.343 84 188 84ZM202 93C202 91.3431 200.657 90 199 90C197.343 90 196 91.3431 196 93V198C196 199.657 197.343 201 199 201C200.657 201 202 199.657 202 198V93ZM210 104C211.657 104 213 105.343 213 107V184C213 185.657 211.657 187 210 187C208.343 187 207 185.657 207 184V107C207 105.343 208.343 104 210 104ZM257 96C257 94.3431 255.657 93 254 93C252.343 93 251 94.3431 251 96V194C251 195.657 252.343 197 254 197C255.657 197 257 195.657 257 194V96ZM276 78C277.657 78 279 79.3431 279 81V209C279 210.657 277.657 212 276 212C274.343 212 273 210.657 273 209V81C273 79.3431 274.343 78 276 78ZM268 102C268 100.343 266.657 99 265 99C263.343 99 262 100.343 262 102V188C262 189.657 263.343 191 265 191C266.657 191 268 189.657 268 188V102ZM287 83C288.657 83 290 84.3431 290 86V205C290 206.657 288.657 208 287 208C285.343 208 284 206.657 284 205V86C284 84.3431 285.343 83 287 83ZM224 117C224 115.343 222.657 114 221 114C219.343 114 218 115.343 218 117V174C218 175.657 219.343 177 221 177C222.657 177 224 175.657 224 174V117ZM243 116C244.657 116 246 117.343 246 119V171C246 172.657 244.657 174 243 174C241.343 174 240 172.657 240 171V119C240 117.343 241.343 116 243 116ZM235 128C235 126.343 233.657 125 232 125C230.343 125 229 126.343 229 128V163C229 164.657 230.343 166 232 166C233.657 166 235 164.657 235 163V128ZM177 97C178.657 97 180 98.3431 180 100V190C180 191.657 178.657 193 177 193C175.343 193 174 191.657 174 190V100C174 98.3431 175.343 97 177 97ZM169 109C169 107.343 167.657 106 166 106C164.343 106 163 107.343 163 109V181C163 182.657 164.343 184 166 184C167.657 184 169 182.657 169 181V109ZM144 109C145.657 109 147 110.343 147 112V179C147 180.657 145.657 182 144 182C142.343 182 141 180.657 141 179V112C141 110.343 142.343 109 144 109ZM125 117C125 115.343 123.657 114 122 114C120.343 114 119 115.343 119 117V173C119 174.657 120.343 176 122 176C123.657 176 125 174.657 125 173V117ZM111 105C112.657 105 114 106.343 114 108V182C114 183.657 112.657 185 111 185C109.343 185 108 183.657 108 182V108C108 106.343 109.343 105 111 105ZM103 116C103 114.343 101.657 113 100 113C98.3431 113 97 114.343 97 116V175C97 176.657 98.3431 178 100 178C101.657 178 103 176.657 103 175V116ZM67 114C68.6569 114 70 115.343 70 117V173C70 174.657 68.6569 176 67 176C65.3431 176 64 174.657 64 173V117C64 115.343 65.3431 114 67 114ZM59 127C59 125.343 57.6569 124 56 124C54.3431 124 53 125.343 53 127V163C53 164.657 54.3431 166 56 166C57.6569 166 59 164.657 59 163V127ZM45 132C46.6569 132 48 133.343 48 135V156C48 157.657 46.6569 159 45 159C43.3431 159 42 157.657 42 156V135C42 133.343 43.3431 132 45 132ZM92 88C92 86.3431 90.6569 85 89 85C87.3431 85 86 86.3431 86 88V203C86 204.657 87.3431 206 89 206C90.6569 206 92 204.657 92 203V88ZM78 93C79.6569 93 81 94.3431 81 96V194C81 195.657 79.6569 197 78 197C76.3431 197 75 195.657 75 194V96C75 94.3431 76.3431 93 78 93ZM136 123C136 121.343 134.657 120 133 120C131.343 120 130 121.343 130 123V167C130 168.657 131.343 170 133 170C134.657 170 136 168.657 136 167V123ZM155 102C156.657 102 158 103.343 158 105V185C158 186.657 156.657 188 155 188C153.343 188 152 186.657 152 185V105C152 103.343 153.343 102 155 102Z" fill="#52B6DE"/>
</svg>
